<svg xmlns="http://www.w3.org/2000/svg" viewBox="0 0 804.3 804.3"><defs><style>.cls-1{fill:#a5a5a5;}</style></defs><g id="Capa_2" data-name="Capa 2"><g id="Capa_1-2" data-name="Capa 1"><path class="cls-1" d="M219.26,804.3C98.36,804.3,0,705.93,0,585V219.27C0,98.36,98.36,0,219.26,0H585A219.53,219.53,0,0,1,804.3,219.27V585c0,120.9-98.37,219.27-219.28,219.27Zm0-743.87c-87.58,0-158.83,71.25-158.83,158.84V585A159,159,0,0,0,219.26,743.87H585c87.59,0,158.85-71.26,158.85-158.84v-6h0V219.27c0-87.59-71.26-158.84-158.85-158.84Z"/><path class="cls-1" d="M402.15,606.49c-112.67,0-204.34-91.66-204.34-204.33s91.67-204.34,204.34-204.34,204.34,91.67,204.34,204.34S514.82,606.49,402.15,606.49Zm0-348.25c-79.36,0-143.91,64.56-143.91,143.91s64.55,143.91,143.91,143.91S546.06,481.5,546.06,402.15,481.5,258.24,402.15,258.24Z"/><path class="cls-1" d="M621.31,230.63a47.08,47.08,0,1,1,33.32-13.79A47.35,47.35,0,0,1,621.31,230.63Z"/></g></g></svg>