<svg xmlns="http://www.w3.org/2000/svg" viewBox="0 0 816.3 816.3"><defs><style>.cls-1{fill:#a5a5a5;}</style></defs><g id="Capa_2" data-name="Capa 2"><g id="Capa_1-2" data-name="Capa 1"><path class="cls-1" d="M408.15,242.34c-92.31,0-167.41,75.09-167.41,167.4s75.1,167.41,167.41,167.41,167.4-75.09,167.4-167.41S500.46,242.34,408.15,242.34Zm0,0c-92.31,0-167.41,75.09-167.41,167.4s75.1,167.41,167.41,167.41,167.4-75.09,167.4-167.41S500.46,242.34,408.15,242.34ZM696.72,0H119.57A119.62,119.62,0,0,0,0,119.57V696.72A119.62,119.62,0,0,0,119.57,816.3H696.72A119.62,119.62,0,0,0,816.3,696.72V119.57A119.62,119.62,0,0,0,696.72,0ZM408.15,625c-118.62,0-215.24-96.62-215.24-215.24s96.62-215.23,215.24-215.23,215.23,96.61,215.23,215.23S526.77,625,408.15,625ZM671.21,194.51A47.83,47.83,0,1,1,719,146.68,48,48,0,0,1,671.21,194.51ZM408.15,242.34c-92.31,0-167.41,75.09-167.41,167.4s75.1,167.41,167.41,167.41,167.4-75.09,167.4-167.41S500.46,242.34,408.15,242.34Zm0,0c-92.31,0-167.41,75.09-167.41,167.4s75.1,167.41,167.41,167.41,167.4-75.09,167.4-167.41S500.46,242.34,408.15,242.34Zm0,0c-92.31,0-167.41,75.09-167.41,167.4s75.1,167.41,167.41,167.41,167.4-75.09,167.4-167.41S500.46,242.34,408.15,242.34Z"/></g></g></svg>