<svg xmlns="http://www.w3.org/2000/svg" viewBox="0 0 640 512"><defs><style>.cls-1{fill:#fff;}</style></defs><g id="Capa_2" data-name="Capa 2"><g id="Capa_1-2" data-name="Capa 1"><path class="cls-1" d="M624,352H608V243.9A48,48,0,0,0,593.9,210L494,110.1A48,48,0,0,0,460.1,96H416V48A48,48,0,0,0,368,0H112A48,48,0,0,0,64,48V96H8a8,8,0,0,0-8,8v16a8,8,0,0,0,8,8H280a8,8,0,0,1,8,8v16a8,8,0,0,1-8,8H40a8,8,0,0,0-8,8v16a8,8,0,0,0,8,8H248a8,8,0,0,1,8,8v16a8,8,0,0,1-8,8H8a8,8,0,0,0-8,8v16a8,8,0,0,0,8,8H216a8,8,0,0,1,8,8v16a8,8,0,0,1-8,8H64V416a96,96,0,0,0,192,0H384a96,96,0,0,0,192,0h48a16,16,0,0,0,16-16V368A16,16,0,0,0,624,352ZM160,464a48,48,0,1,1,48-48A48,48,0,0,1,160,464Zm320,0a48,48,0,1,1,48-48A48,48,0,0,1,480,464Zm80-208H416V144h44.1L560,243.9Z"/></g></g></svg>